<svg width="100" height="100" viewBox="0 0 100 100" fill="none" xmlns="http://www.w3.org/2000/svg">
<g clip-path="url(#clip0_361_2)">
<circle cx="50" cy="50" r="50" fill="url(#paint0_linear_361_2)"/>
<path d="M33.0176 78.67C33.0176 76.78 34.4576 75.25 36.3476 75.25C38.2376 75.25 39.7676 76.78 39.7676 78.67C39.7676 80.56 38.2376 82 36.3476 82C34.4576 82 33.0176 80.56 33.0176 78.67ZM33.0176 69.67C33.0176 67.78 34.4576 66.25 36.3476 66.25C38.2376 66.25 39.7676 67.78 39.7676 69.67C39.7676 71.56 38.2376 73 36.3476 73C34.4576 73 33.0176 71.56 33.0176 69.67ZM33.0176 60.67C33.0176 58.78 34.4576 57.25 36.3476 57.25C38.2376 57.25 39.7676 58.78 39.7676 60.67C39.7676 62.56 38.2376 64 36.3476 64C34.4576 64 33.0176 62.56 33.0176 60.67ZM33.0176 51.67C33.0176 49.78 34.4576 48.25 36.3476 48.25C38.2376 48.25 39.7676 49.78 39.7676 51.67C39.7676 53.56 38.2376 55 36.3476 55C34.4576 55 33.0176 53.56 33.0176 51.67ZM42.0176 51.67C42.0176 49.78 43.4576 48.25 45.3476 48.25C47.2376 48.25 48.7676 49.78 48.7676 51.67C48.7676 53.56 47.2376 55 45.3476 55C43.4576 55 42.0176 53.56 42.0176 51.67ZM51.0176 51.67C51.0176 49.78 52.4576 48.25 54.3476 48.25C56.2376 48.25 57.7676 49.78 57.7676 51.67C57.7676 53.56 56.2376 55 54.3476 55C52.4576 55 51.0176 53.56 51.0176 51.67ZM60.0176 51.67C60.0176 49.78 61.4576 48.25 63.3476 48.25C65.2376 48.25 66.7676 49.78 66.7676 51.67C66.7676 53.56 65.2376 55 63.3476 55C61.4576 55 60.0176 53.56 60.0176 51.67ZM33.0176 42.67C33.0176 40.78 34.4576 39.25 36.3476 39.25C38.2376 39.25 39.7676 40.78 39.7676 42.67C39.7676 44.56 38.2376 46 36.3476 46C34.4576 46 33.0176 44.56 33.0176 42.67ZM33.0176 33.67C33.0176 31.78 34.4576 30.25 36.3476 30.25C38.2376 30.25 39.7676 31.78 39.7676 33.67C39.7676 35.56 38.2376 37 36.3476 37C34.4576 37 33.0176 35.56 33.0176 33.67ZM33.0176 24.67C33.0176 22.78 34.4576 21.25 36.3476 21.25C38.2376 21.25 39.7676 22.78 39.7676 24.67C39.7676 26.56 38.2376 28 36.3476 28C34.4576 28 33.0176 26.56 33.0176 24.67ZM42.0176 24.67C42.0176 22.78 43.4576 21.25 45.3476 21.25C47.2376 21.25 48.7676 22.78 48.7676 24.67C48.7676 26.56 47.2376 28 45.3476 28C43.4576 28 42.0176 26.56 42.0176 24.67ZM51.0176 24.67C51.0176 22.78 52.4576 21.25 54.3476 21.25C56.2376 21.25 57.7676 22.78 57.7676 24.67C57.7676 26.56 56.2376 28 54.3476 28C52.4576 28 51.0176 26.56 51.0176 24.67ZM60.0176 24.67C60.0176 22.78 61.4576 21.25 63.3476 21.25C65.2376 21.25 66.7676 22.78 66.7676 24.67C66.7676 26.56 65.2376 28 63.3476 28C61.4576 28 60.0176 26.56 60.0176 24.67ZM69.0176 24.67C69.0176 22.78 70.4576 21.25 72.3476 21.25C74.2376 21.25 75.7676 22.78 75.7676 24.67C75.7676 26.56 74.2376 28 72.3476 28C70.4576 28 69.0176 26.56 69.0176 24.67Z" fill="#D4724F"/>
<path d="M31.0176 76.67C31.0176 74.78 32.4576 73.25 34.3476 73.25C36.2376 73.25 37.7676 74.78 37.7676 76.67C37.7676 78.56 36.2376 80 34.3476 80C32.4576 80 31.0176 78.56 31.0176 76.67ZM31.0176 67.67C31.0176 65.78 32.4576 64.25 34.3476 64.25C36.2376 64.25 37.7676 65.78 37.7676 67.67C37.7676 69.56 36.2376 71 34.3476 71C32.4576 71 31.0176 69.56 31.0176 67.67ZM31.0176 58.67C31.0176 56.78 32.4576 55.25 34.3476 55.25C36.2376 55.25 37.7676 56.78 37.7676 58.67C37.7676 60.56 36.2376 62 34.3476 62C32.4576 62 31.0176 60.56 31.0176 58.67ZM31.0176 49.67C31.0176 47.78 32.4576 46.25 34.3476 46.25C36.2376 46.25 37.7676 47.78 37.7676 49.67C37.7676 51.56 36.2376 53 34.3476 53C32.4576 53 31.0176 51.56 31.0176 49.67ZM40.0176 49.67C40.0176 47.78 41.4576 46.25 43.3476 46.25C45.2376 46.25 46.7676 47.78 46.7676 49.67C46.7676 51.56 45.2376 53 43.3476 53C41.4576 53 40.0176 51.56 40.0176 49.67ZM49.0176 49.67C49.0176 47.78 50.4576 46.25 52.3476 46.25C54.2376 46.25 55.7676 47.78 55.7676 49.67C55.7676 51.56 54.2376 53 52.3476 53C50.4576 53 49.0176 51.56 49.0176 49.67ZM58.0176 49.67C58.0176 47.78 59.4576 46.25 61.3476 46.25C63.2376 46.25 64.7676 47.78 64.7676 49.67C64.7676 51.56 63.2376 53 61.3476 53C59.4576 53 58.0176 51.56 58.0176 49.67ZM31.0176 40.67C31.0176 38.78 32.4576 37.25 34.3476 37.25C36.2376 37.25 37.7676 38.78 37.7676 40.67C37.7676 42.56 36.2376 44 34.3476 44C32.4576 44 31.0176 42.56 31.0176 40.67ZM31.0176 31.67C31.0176 29.78 32.4576 28.25 34.3476 28.25C36.2376 28.25 37.7676 29.78 37.7676 31.67C37.7676 33.56 36.2376 35 34.3476 35C32.4576 35 31.0176 33.56 31.0176 31.67ZM31.0176 22.67C31.0176 20.78 32.4576 19.25 34.3476 19.25C36.2376 19.25 37.7676 20.78 37.7676 22.67C37.7676 24.56 36.2376 26 34.3476 26C32.4576 26 31.0176 24.56 31.0176 22.67ZM40.0176 22.67C40.0176 20.78 41.4576 19.25 43.3476 19.25C45.2376 19.25 46.7676 20.78 46.7676 22.67C46.7676 24.56 45.2376 26 43.3476 26C41.4576 26 40.0176 24.56 40.0176 22.67ZM49.0176 22.67C49.0176 20.78 50.4576 19.25 52.3476 19.25C54.2376 19.25 55.7676 20.78 55.7676 22.67C55.7676 24.56 54.2376 26 52.3476 26C50.4576 26 49.0176 24.56 49.0176 22.67ZM58.0176 22.67C58.0176 20.78 59.4576 19.25 61.3476 19.25C63.2376 19.25 64.7676 20.78 64.7676 22.67C64.7676 24.56 63.2376 26 61.3476 26C59.4576 26 58.0176 24.56 58.0176 22.67ZM67.0176 22.67C67.0176 20.78 68.4576 19.25 70.3476 19.25C72.2376 19.25 73.7676 20.78 73.7676 22.67C73.7676 24.56 72.2376 26 70.3476 26C68.4576 26 67.0176 24.56 67.0176 22.67Z" fill="#E3975B"/>
<path d="M29.0176 74.67C29.0176 72.78 30.4576 71.25 32.3476 71.25C34.2376 71.25 35.7676 72.78 35.7676 74.67C35.7676 76.56 34.2376 78 32.3476 78C30.4576 78 29.0176 76.56 29.0176 74.67ZM29.0176 65.67C29.0176 63.78 30.4576 62.25 32.3476 62.25C34.2376 62.25 35.7676 63.78 35.7676 65.67C35.7676 67.56 34.2376 69 32.3476 69C30.4576 69 29.0176 67.56 29.0176 65.67ZM29.0176 56.67C29.0176 54.78 30.4576 53.25 32.3476 53.25C34.2376 53.25 35.7676 54.78 35.7676 56.67C35.7676 58.56 34.2376 60 32.3476 60C30.4576 60 29.0176 58.56 29.0176 56.67ZM29.0176 47.67C29.0176 45.78 30.4576 44.25 32.3476 44.25C34.2376 44.25 35.7676 45.78 35.7676 47.67C35.7676 49.56 34.2376 51 32.3476 51C30.4576 51 29.0176 49.56 29.0176 47.67ZM38.0176 47.67C38.0176 45.78 39.4576 44.25 41.3476 44.25C43.2376 44.25 44.7676 45.78 44.7676 47.67C44.7676 49.56 43.2376 51 41.3476 51C39.4576 51 38.0176 49.56 38.0176 47.67ZM47.0176 47.67C47.0176 45.78 48.4576 44.25 50.3476 44.25C52.2376 44.25 53.7676 45.78 53.7676 47.67C53.7676 49.56 52.2376 51 50.3476 51C48.4576 51 47.0176 49.56 47.0176 47.67ZM56.0176 47.67C56.0176 45.78 57.4576 44.25 59.3476 44.25C61.2376 44.25 62.7676 45.78 62.7676 47.67C62.7676 49.56 61.2376 51 59.3476 51C57.4576 51 56.0176 49.56 56.0176 47.67ZM29.0176 38.67C29.0176 36.78 30.4576 35.25 32.3476 35.25C34.2376 35.25 35.7676 36.78 35.7676 38.67C35.7676 40.56 34.2376 42 32.3476 42C30.4576 42 29.0176 40.56 29.0176 38.67ZM29.0176 29.67C29.0176 27.78 30.4576 26.25 32.3476 26.25C34.2376 26.25 35.7676 27.78 35.7676 29.67C35.7676 31.56 34.2376 33 32.3476 33C30.4576 33 29.0176 31.56 29.0176 29.67ZM29.0176 20.67C29.0176 18.78 30.4576 17.25 32.3476 17.25C34.2376 17.25 35.7676 18.78 35.7676 20.67C35.7676 22.56 34.2376 24 32.3476 24C30.4576 24 29.0176 22.56 29.0176 20.67ZM38.0176 20.67C38.0176 18.78 39.4576 17.25 41.3476 17.25C43.2376 17.25 44.7676 18.78 44.7676 20.67C44.7676 22.56 43.2376 24 41.3476 24C39.4576 24 38.0176 22.56 38.0176 20.67ZM47.0176 20.67C47.0176 18.78 48.4576 17.25 50.3476 17.25C52.2376 17.25 53.7676 18.78 53.7676 20.67C53.7676 22.56 52.2376 24 50.3476 24C48.4576 24 47.0176 22.56 47.0176 20.67ZM56.0176 20.67C56.0176 18.78 57.4576 17.25 59.3476 17.25C61.2376 17.25 62.7676 18.78 62.7676 20.67C62.7676 22.56 61.2376 24 59.3476 24C57.4576 24 56.0176 22.56 56.0176 20.67ZM65.0176 20.67C65.0176 18.78 66.4576 17.25 68.3476 17.25C70.2376 17.25 71.7676 18.78 71.7676 20.67C71.7676 22.56 70.2376 24 68.3476 24C66.4576 24 65.0176 22.56 65.0176 20.67Z" fill="#DFBA66"/>
</g>
<defs>
<linearGradient id="paint0_linear_361_2" x1="0" y1="0" x2="100" y2="100" gradientUnits="userSpaceOnUse">
<stop stop-color="#43877E"/>
<stop offset="1" stop-color="#2B464F"/>
</linearGradient>
<clipPath id="clip0_361_2">
<rect width="100" height="100" fill="white"/>
</clipPath>
</defs>
</svg>
