<svg width="100" height="100" viewBox="0 0 100 100" fill="none" xmlns="http://www.w3.org/2000/svg">
<g clip-path="url(#clip0_359_2)">
<path d="M23.625 91.264C23.625 88.576 25.673 86.4 28.361 86.4C31.049 86.4 33.225 88.576 33.225 91.264C33.225 93.952 31.049 96 28.361 96C25.673 96 23.625 93.952 23.625 91.264ZM23.625 78.464C23.625 75.776 25.673 73.6 28.361 73.6C31.049 73.6 33.225 75.776 33.225 78.464C33.225 81.152 31.049 83.2 28.361 83.2C25.673 83.2 23.625 81.152 23.625 78.464ZM23.625 65.664C23.625 62.976 25.673 60.8 28.361 60.8C31.049 60.8 33.225 62.976 33.225 65.664C33.225 68.352 31.049 70.4 28.361 70.4C25.673 70.4 23.625 68.352 23.625 65.664ZM23.625 52.864C23.625 50.176 25.673 48 28.361 48C31.049 48 33.225 50.176 33.225 52.864C33.225 55.552 31.049 57.6 28.361 57.6C25.673 57.6 23.625 55.552 23.625 52.864ZM36.425 52.864C36.425 50.176 38.473 48 41.161 48C43.849 48 46.025 50.176 46.025 52.864C46.025 55.552 43.849 57.6 41.161 57.6C38.473 57.6 36.425 55.552 36.425 52.864ZM49.225 52.864C49.225 50.176 51.273 48 53.961 48C56.649 48 58.825 50.176 58.825 52.864C58.825 55.552 56.649 57.6 53.961 57.6C51.273 57.6 49.225 55.552 49.225 52.864ZM62.025 52.864C62.025 50.176 64.073 48 66.761 48C69.449 48 71.625 50.176 71.625 52.864C71.625 55.552 69.449 57.6 66.761 57.6C64.073 57.6 62.025 55.552 62.025 52.864ZM23.625 40.064C23.625 37.376 25.673 35.2 28.361 35.2C31.049 35.2 33.225 37.376 33.225 40.064C33.225 42.752 31.049 44.8 28.361 44.8C25.673 44.8 23.625 42.752 23.625 40.064ZM23.625 27.264C23.625 24.576 25.673 22.4 28.361 22.4C31.049 22.4 33.225 24.576 33.225 27.264C33.225 29.952 31.049 32 28.361 32C25.673 32 23.625 29.952 23.625 27.264ZM23.625 14.464C23.625 11.776 25.673 9.6 28.361 9.6C31.049 9.6 33.225 11.776 33.225 14.464C33.225 17.152 31.049 19.2 28.361 19.2C25.673 19.2 23.625 17.152 23.625 14.464ZM36.425 14.464C36.425 11.776 38.473 9.6 41.161 9.6C43.849 9.6 46.025 11.776 46.025 14.464C46.025 17.152 43.849 19.2 41.161 19.2C38.473 19.2 36.425 17.152 36.425 14.464ZM49.225 14.464C49.225 11.776 51.273 9.6 53.961 9.6C56.649 9.6 58.825 11.776 58.825 14.464C58.825 17.152 56.649 19.2 53.961 19.2C51.273 19.2 49.225 17.152 49.225 14.464ZM62.025 14.464C62.025 11.776 64.073 9.6 66.761 9.6C69.449 9.6 71.625 11.776 71.625 14.464C71.625 17.152 69.449 19.2 66.761 19.2C64.073 19.2 62.025 17.152 62.025 14.464ZM74.825 14.464C74.825 11.776 76.873 9.6 79.561 9.6C82.249 9.6 84.425 11.776 84.425 14.464C84.425 17.152 82.249 19.2 79.561 19.2C76.873 19.2 74.825 17.152 74.825 14.464Z" fill="#D4724F"/>
<path d="M21.625 89.264C21.625 86.576 23.673 84.4 26.361 84.4C29.049 84.4 31.225 86.576 31.225 89.264C31.225 91.952 29.049 94 26.361 94C23.673 94 21.625 91.952 21.625 89.264ZM21.625 76.464C21.625 73.776 23.673 71.6 26.361 71.6C29.049 71.6 31.225 73.776 31.225 76.464C31.225 79.152 29.049 81.2 26.361 81.2C23.673 81.2 21.625 79.152 21.625 76.464ZM21.625 63.664C21.625 60.976 23.673 58.8 26.361 58.8C29.049 58.8 31.225 60.976 31.225 63.664C31.225 66.352 29.049 68.4 26.361 68.4C23.673 68.4 21.625 66.352 21.625 63.664ZM21.625 50.864C21.625 48.176 23.673 46 26.361 46C29.049 46 31.225 48.176 31.225 50.864C31.225 53.552 29.049 55.6 26.361 55.6C23.673 55.6 21.625 53.552 21.625 50.864ZM34.425 50.864C34.425 48.176 36.473 46 39.161 46C41.849 46 44.025 48.176 44.025 50.864C44.025 53.552 41.849 55.6 39.161 55.6C36.473 55.6 34.425 53.552 34.425 50.864ZM47.225 50.864C47.225 48.176 49.273 46 51.961 46C54.649 46 56.825 48.176 56.825 50.864C56.825 53.552 54.649 55.6 51.961 55.6C49.273 55.6 47.225 53.552 47.225 50.864ZM60.025 50.864C60.025 48.176 62.073 46 64.761 46C67.449 46 69.625 48.176 69.625 50.864C69.625 53.552 67.449 55.6 64.761 55.6C62.073 55.6 60.025 53.552 60.025 50.864ZM21.625 38.064C21.625 35.376 23.673 33.2 26.361 33.2C29.049 33.2 31.225 35.376 31.225 38.064C31.225 40.752 29.049 42.8 26.361 42.8C23.673 42.8 21.625 40.752 21.625 38.064ZM21.625 25.264C21.625 22.576 23.673 20.4 26.361 20.4C29.049 20.4 31.225 22.576 31.225 25.264C31.225 27.952 29.049 30 26.361 30C23.673 30 21.625 27.952 21.625 25.264ZM21.625 12.464C21.625 9.77599 23.673 7.6 26.361 7.6C29.049 7.6 31.225 9.77599 31.225 12.464C31.225 15.152 29.049 17.2 26.361 17.2C23.673 17.2 21.625 15.152 21.625 12.464ZM34.425 12.464C34.425 9.77599 36.473 7.6 39.161 7.6C41.849 7.6 44.025 9.77599 44.025 12.464C44.025 15.152 41.849 17.2 39.161 17.2C36.473 17.2 34.425 15.152 34.425 12.464ZM47.225 12.464C47.225 9.77599 49.273 7.6 51.961 7.6C54.649 7.6 56.825 9.77599 56.825 12.464C56.825 15.152 54.649 17.2 51.961 17.2C49.273 17.2 47.225 15.152 47.225 12.464ZM60.025 12.464C60.025 9.77599 62.073 7.6 64.761 7.6C67.449 7.6 69.625 9.77599 69.625 12.464C69.625 15.152 67.449 17.2 64.761 17.2C62.073 17.2 60.025 15.152 60.025 12.464ZM72.825 12.464C72.825 9.77599 74.873 7.6 77.561 7.6C80.249 7.6 82.425 9.77599 82.425 12.464C82.425 15.152 80.249 17.2 77.561 17.2C74.873 17.2 72.825 15.152 72.825 12.464Z" fill="#E3975B"/>
<path d="M19.625 87.264C19.625 84.576 21.673 82.4 24.361 82.4C27.049 82.4 29.225 84.576 29.225 87.264C29.225 89.952 27.049 92 24.361 92C21.673 92 19.625 89.952 19.625 87.264ZM19.625 74.464C19.625 71.776 21.673 69.6 24.361 69.6C27.049 69.6 29.225 71.776 29.225 74.464C29.225 77.152 27.049 79.2 24.361 79.2C21.673 79.2 19.625 77.152 19.625 74.464ZM19.625 61.664C19.625 58.976 21.673 56.8 24.361 56.8C27.049 56.8 29.225 58.976 29.225 61.664C29.225 64.352 27.049 66.4 24.361 66.4C21.673 66.4 19.625 64.352 19.625 61.664ZM19.625 48.864C19.625 46.176 21.673 44 24.361 44C27.049 44 29.225 46.176 29.225 48.864C29.225 51.552 27.049 53.6 24.361 53.6C21.673 53.6 19.625 51.552 19.625 48.864ZM32.425 48.864C32.425 46.176 34.473 44 37.161 44C39.849 44 42.025 46.176 42.025 48.864C42.025 51.552 39.849 53.6 37.161 53.6C34.473 53.6 32.425 51.552 32.425 48.864ZM45.225 48.864C45.225 46.176 47.273 44 49.961 44C52.649 44 54.825 46.176 54.825 48.864C54.825 51.552 52.649 53.6 49.961 53.6C47.273 53.6 45.225 51.552 45.225 48.864ZM58.025 48.864C58.025 46.176 60.073 44 62.761 44C65.449 44 67.625 46.176 67.625 48.864C67.625 51.552 65.449 53.6 62.761 53.6C60.073 53.6 58.025 51.552 58.025 48.864ZM19.625 36.064C19.625 33.376 21.673 31.2 24.361 31.2C27.049 31.2 29.225 33.376 29.225 36.064C29.225 38.752 27.049 40.8 24.361 40.8C21.673 40.8 19.625 38.752 19.625 36.064ZM19.625 23.264C19.625 20.576 21.673 18.4 24.361 18.4C27.049 18.4 29.225 20.576 29.225 23.264C29.225 25.952 27.049 28 24.361 28C21.673 28 19.625 25.952 19.625 23.264ZM19.625 10.464C19.625 7.77599 21.673 5.6 24.361 5.6C27.049 5.6 29.225 7.77599 29.225 10.464C29.225 13.152 27.049 15.2 24.361 15.2C21.673 15.2 19.625 13.152 19.625 10.464ZM32.425 10.464C32.425 7.77599 34.473 5.6 37.161 5.6C39.849 5.6 42.025 7.77599 42.025 10.464C42.025 13.152 39.849 15.2 37.161 15.2C34.473 15.2 32.425 13.152 32.425 10.464ZM45.225 10.464C45.225 7.77599 47.273 5.6 49.961 5.6C52.649 5.6 54.825 7.77599 54.825 10.464C54.825 13.152 52.649 15.2 49.961 15.2C47.273 15.2 45.225 13.152 45.225 10.464ZM58.025 10.464C58.025 7.77599 60.073 5.6 62.761 5.6C65.449 5.6 67.625 7.77599 67.625 10.464C67.625 13.152 65.449 15.2 62.761 15.2C60.073 15.2 58.025 13.152 58.025 10.464ZM70.825 10.464C70.825 7.77599 72.873 5.6 75.561 5.6C78.249 5.6 80.425 7.77599 80.425 10.464C80.425 13.152 78.249 15.2 75.561 15.2C72.873 15.2 70.825 13.152 70.825 10.464Z" fill="#DFBA66"/>
</g>
<defs>
<clipPath id="clip0_359_2">
<rect width="100" height="100" fill="white"/>
</clipPath>
</defs>
</svg>
